<?xml version="1.0" encoding="UTF-8"?>
<svg id="katman_2" data-name="katman 2" xmlns="http://www.w3.org/2000/svg" viewBox="0 0 937.2 129.88">
  <defs>
    <style>
      .cls-1 {
        fill: #85afb4;
      }

      .cls-1, .cls-2, .cls-3, .cls-4 {
        stroke-width: 0px;
      }

      .cls-2 {
        fill: #f7931e;
      }

      .cls-3 {
        fill: #fff;
      }

      .cls-4 {
        fill: #239a7e;
      }
    </style>
  </defs>
  <g id="katman_1" data-name="katman 1">
    <g>
      <path class="cls-3" d="m162,23.32h12.17c3.08,8.39,6.18,16.82,9.6,26.12,3.19-9.22,6.07-17.52,9-26,3.82-.42,7.59-.45,11.46.04,2.99,8.26,5.94,16.43,8.89,24.6.29.02.58.04.88.06,2.88-8.21,5.77-16.41,8.7-24.75h11.92c-5.21,13.81-10.33,27.37-15.39,40.79q-11.13.69-13.54-6.32c-2.19-6.29-4.43-12.57-7.69-18.86-3.21,8.33-6.43,16.67-9.72,25.2h-10.79c-5.11-13.47-10.26-27.03-15.51-40.88Z"/>
      <path class="cls-2" d="m801.15,94.55c17.18,0,34.35-.02,51.53,0,5.57,0,9.24,2.09,9.56,5.27.37,3.68-3.14,5.99-9.32,6-29.3.03-58.6.02-87.91.03-4.88,0-9.77.02-14.65,0-6.5-.03-10.31-2.18-10.38-5.81-.07-3.42,3.69-5.5,10.14-5.51,17.01-.02,34.02,0,51.03,0v.02Z"/>
      <path class="cls-2" d="m292.16,105.8c-15.98,0-31.95.02-47.93,0-6.16-.01-9.97-2.2-10.05-5.65-.08-3.64,3.33-5.6,9.9-5.6,31.61-.01,63.23,0,94.84,0,.67,0,1.35-.02,2.02,0,5.98.19,9.31,2.09,9.36,5.33.05,3.46-3.91,5.94-9.72,5.94-16.14.03-32.29,0-48.43,0v-.02Z"/>
      <path class="cls-3" d="m558.12,119.41h-9.67c-2.55-7.02-5.13-14.14-8.09-22.28-3.02,8.04-5.7,15.17-8.39,22.33-.85.06-1.52.07-2.17.15-5.39.67-7.79-.73-9.02-4.64-2.91-9.22-6.69-18.3-10.16-27.43-.51-1.34-1.03-2.66-.75-4.03.24-.09.38-.19.53-.2,8.65-.41,8.68-.42,10.89,5.44,2.08,5.52,4.1,11.06,6.36,17.16,2.25-6.14,4.29-11.76,6.36-17.38q2.02-5.49,11.15-5.02c2.56,7.04,5.16,14.2,7.77,21.35.29.03.58.06.88.08,2.56-7.14,5.11-14.28,7.7-21.51h10.54c-4.66,12.05-9.25,23.9-13.92,35.97Z"/>
      <path class="cls-3" d="m849.84,39.59v24.66h-10.68V23.76c6.84-1.66,9.11-1.15,12.54,2.87,5.77,6.78,11.55,13.56,18.19,20.22v-23.69h10.82v40.8c-8.56,1.23-9.03,1.09-13.36-3.97-5.61-6.54-11.22-13.08-17.5-20.4Z"/>
      <path class="cls-3" d="m684.42,40.22h20.94v-17h11.19v40.91c-3.45.55-7.08.15-11.19.16v-16.58h-20.67v16.33c-3.88.69-7.48.36-11.28.23V23.31c3.58-.37,7.01-.26,11.01-.03v16.94Z"/>
      <path class="cls-3" d="m399.99,23.38c7.89,0,15.48-.4,22.96.09,12.03.79,19.95,6.46,21.07,14.83.6,4.51.74,9.08-.72,13.6-2.21,6.84-9.84,11.93-19.89,12.41-7.67.37-15.41.07-23.43.07V23.38Zm11.34,33.88c2.38,0,4.37,0,6.35,0,10.23-.03,14.3-2.81,14.42-9.93.05-2.92.07-5.84-.07-8.75-.21-4.28-4.07-7.42-10.01-7.88-3.44-.27-6.97-.05-10.7-.05v26.61Z"/>
      <path class="cls-3" d="m333.08,49.01c3.25,5.06,6.43,10.02,9.87,15.39-3.13,0-5.47-.12-7.77.03-2.7.18-4.31-.37-5.34-2.25-1.19-2.17-2.88-4.21-4.43-6.28q-4.07-5.41-13.39-4.8v13.02h-11.05V23.21c9.76.06,19.69-1.13,29.26.96,12.77,2.78,16.94,14.6,7.95,21.58-1.44,1.12-3.18,2.05-5.1,3.27Zm-21.03-5.19c6.66-.42,13.55,1.25,18.03-3.18,2.37-2.35,2.4-5.21-.17-7.52-4.79-4.29-11.6-2.07-17.86-2.61v13.31Z"/>
      <path class="cls-3" d="m573.9,23.07c8.34.18,16.35-.31,24.4.35,8.29.68,13.74,3.62,15.97,9.11,2.22,5.5,1.09,10.62-5.04,14.83-.83.57-1.72,1.11-2.75,1.77,2.41,5.14,6.04,9.94,9.55,15.21-3.14,0-5.64-.12-8.1.03-2.57.16-4-.55-5.04-2.13-1.46-2.22-3.14-4.37-4.79-6.54q-4.08-5.37-13.34-4.55v13.02h-10.74c-.88-2.63-1.08-36.66-.12-41.11Zm10.89,21.02c6.3-.76,13.24,1.45,17.61-2.86,2.49-2.46,2.64-5.77-.17-8.27-4.67-4.18-11.38-1.8-17.44-2.5v13.64Z"/>
      <path class="cls-3" d="m290.28,44.64c0,2.1.35,4.23-.06,6.29-1.71,8.48-10.99,13.98-23.18,13.91-13.31-.07-21.39-4.89-23.24-14.01-1.08-5.33-1.55-10.73.46-15.99,3.2-8.38,11.04-12.12,24.3-11.96,10.08.12,18.17,4.92,21.02,12.37,1.19,3.1.93,6.24.69,9.38Zm-11.86-.96s.04,0,.06,0c0-2.1.15-4.2-.03-6.29-.35-4.14-5-6.88-11.56-6.95-6.79-.07-11.24,2.42-11.71,6.78-.46,4.29-.67,8.59-.02,12.9.71,4.7,4.3,7.06,11.13,7.14,7,.08,11.45-2.4,12.07-6.95.3-2.19.05-4.42.05-6.63Z"/>
      <path class="cls-3" d="m937.16,42.67c0,5.47-.07,10.71.04,15.95.04,1.68-1.9,2.26-3.25,2.79-6.03,2.4-12.61,3.65-19.61,3.37-11.81-.48-20.18-5.47-22.09-13.66-1.16-4.95-1.16-10.09.08-15.02,2.42-9.59,15.86-15.08,30.77-13,4.63.64,9.11,1.49,12.6,4.08-2,1.78-3.93,3.5-6,5.34-4.93-1.77-10.11-2.94-15.84-2.08-5.68.85-9.58,3.29-10.2,7.19-.71,4.52-.93,9.09.37,13.61.89,3.08,3.8,4.97,7.97,5.68,4.49.76,9.22.82,12.97-1.37,2.85-1.65,1.08-4.11,1.35-6.42-2.72-.09-5.16-.17-7.68-.26-.68-2.09-.41-4.04-.22-6.2h18.73Z"/>
      <path class="cls-3" d="m517.96,23.15h11.32c0,8.8-.09,17.43.03,26.05.07,5.42,3.73,8.04,10.81,8.07,6.72.03,10.21-2.27,10.3-7.07.14-7.84.06-15.67.13-23.51.01-1.13-.48-2.33.64-3.57h9.68c1.2.86.81,1.84.82,2.74.04,8.07.1,16.14.02,24.21-.1,9.19-8.21,14.72-21.57,14.82-12.35.1-21.6-5.87-22.11-14.42-.23-3.85-.05-7.72-.05-11.58,0-5.14,0-10.28,0-15.76Z"/>
      <path class="cls-3" d="m422.73,119.16c-5.47,1.04-9.2.49-12.17-3.51-4.4-5.92-10.07-11.38-15.92-17.83v21.6h-9.94v-35.74c8.25-1.15,8.42-1.06,12.5,3.59,4.89,5.58,9.87,11.12,15.55,17.5v-21.27h9.98v35.66Z"/>
      <path class="cls-3" d="m479.79,51.05v12.95c-3.79.83-7.39.2-11.28.44V23.24c9.76.12,19.63-1.09,29.24.91,8.81,1.83,13.58,8.13,12.08,15.12-1.42,6.64-8.51,11.37-17.82,11.75-3.85.16-7.72.03-12.22.03Zm-.05-6.93c6.38-.86,13.5,1.56,17.62-3.46,2.21-2.69,2.46-5.84-.62-8.18-4.77-3.63-11.14-1.4-17-2.01v13.65Z"/>
      <path class="cls-3" d="m625.52,83.45c8.1-.07,15.96-.63,23.76.27,7.18.84,12.22,4.23,13.15,8.87.96,4.81-.59,9.05-7.17,11.72-.41.17-.74.43-1.44.85,3.09,4.56,6.2,9.14,9.33,13.75-9.37,1.29-9.51,1.24-13.7-4.29-1.01-1.34-2.31-2.61-2.99-4.03-1.73-3.61-5.04-4.94-10.81-3.71v12.3c-3.58.6-6.7.38-10.13.24v-35.98Zm10.05,16.66c3.54,0,6.71.11,9.86-.03,4.24-.18,7.24-2.5,6.93-5.33-.33-3.02-2.64-4.65-7.21-4.56-3.14.06-6.28.01-9.58.01v9.9Z"/>
      <path class="cls-3" d="m738.9,23.36c.46-.15.61-.23.77-.24,8.72-.43,8.55-.39,11.12,5.3,4.91,10.88,10.03,21.71,15.07,32.56.46.99,1.29,1.91.82,3.2h-10.59c-.91-1.94-1.83-3.91-2.79-5.97h-19.48c-.65,1.84-1.31,3.71-2.05,5.79-3.63.68-7.39.34-11.65.18,6.31-13.71,12.52-27.22,18.78-40.83Zm4.05,12.61c-2.26,5.32-4.36,10.28-6.5,15.3h13.77c-2.06-4.62-4-9.01-5.99-13.41-.24-.54-.7-1.04-1.29-1.9Z"/>
      <path class="cls-3" d="m774.88,53.95c4.84,1.89,9.27,3.83,14.8,3.47,3.43-.23,6.43-.84,7.2-3.49.81-2.8-1.58-4.4-4.98-5.35-3.26-.91-6.65-1.59-9.92-2.48-9.42-2.56-13.45-6.84-12.12-12.73,1.28-5.69,8.23-9.9,17.24-10.46,7.6-.48,14.94,1.15,20.08,4.5-1.8,1.9-3.62,3.81-5.61,5.91-2.98-.92-5.49-2.54-8.84-2.98-2.38-.31-4.62-.39-6.93.19-2.78.69-4.64,1.9-4.9,4-.27,2.17,1.5,3.55,4.17,4.33,4.31,1.26,8.76,2.31,13.05,3.61,7.35,2.23,10.54,5.82,10,10.96-.57,5.41-5.43,9.39-12.94,10.77-9.88,1.81-18.48,0-26.73-4.31,2.18-2.01,4.24-3.92,6.43-5.94Z"/>
      <path class="cls-3" d="m616.15,101.66c0,1.29,0,2.57,0,3.86-.04,10.27-11.82,16.53-26.25,13.86-7.3-1.35-12.1-4.65-13.5-9.81-1.44-5.3-1.49-10.75-.15-16.04,1.78-7.07,10.23-11.18,20.98-10.81,10.46.36,17.97,5.35,18.78,12.62.23,2.09.04,4.21.04,6.32.04,0,.07,0,.11,0Zm-10.13-.54c0-1.75.09-3.5-.02-5.25-.23-3.7-3.89-6.11-9.39-6.29-5.73-.19-10.37,2.14-10.7,5.78-.34,3.84-.34,7.71-.02,11.55.31,3.72,4.86,6.32,10.26,6.28,5.57-.04,9.53-2.59,9.86-6.47.16-1.86.03-3.73.02-5.6Z"/>
      <path class="cls-3" d="m688.46,104.76c-10.22,2.94-5.3,9.32-6.89,14.38-3.07.46-6.19.23-9.63.1v-35.83h9.65v17.25c5.09-4.71,9.93-8.31,13.26-12.49,3.93-4.93,9.52-5.47,17.22-4.52-4.66,4.38-8.92,8.66-13.64,12.68-2.31,1.97-2.26,3.39-.43,5.47,4.97,5.62,9.6,11.38,14.47,17.2-11.06,1.37-11.33,1.29-16.16-4.62-2.64-3.23-5.28-6.47-7.85-9.61Z"/>
      <path class="cls-3" d="m665.74,27.47c-2.01,1.76-3.97,3.49-6.15,5.41-4.38-1.39-8.67-2.87-13.76-2.47-7.04.56-11.08,3.19-11.45,8.11-.23,3.03-.18,6.08-.08,9.12.31,8.93,10.27,12.61,21.29,7.9.98-.42,1.91-.89,3.07-1.44,2.39,1.78,4.63,3.46,7.09,5.3-7.63,5.42-16.85,6.51-26.56,4.71-9.58-1.78-14.53-6.94-15.9-13.55-.95-4.63-.82-9.37.19-14,2.13-9.87,13.39-15.1,28.83-13.56,5.05.5,9.87,1.44,13.43,4.45Z"/>
      <path class="cls-3" d="m434.44,83.42h32.65v6.29h-22.3v8.2h19.45v6.31h-18.9v8.5h22.13v6.37h-33.02v-35.67Z"/>
      <path class="cls-3" d="m365.97,57.36h23.32v6.86h-34.56V23.21h11.24v34.15Z"/>
      <path class="cls-3" d="m494.92,119.31h-10.19v-29.05c-4.26-.95-8.35,0-12.45-.66v-6.22c10.65,0,21.2.01,31.74,0,1.87,0,2.82.52,2.8,1.85-.02,1.38,0,2.75,0,4.49h-11.88v29.59Z"/>
      <path class="cls-3" d="m826.11,64.25h-10.52V23.47c3.29-.94,6.74-.22,10.52-.47v41.24Z"/>
      <path class="cls-3" d="m99.98,100.38c-2.25,2.01-4.63,3.83-7.22,5.4-4.96,3.01-10.24,5.15-15.93,6.13-19.29,3.33-35.37-2.22-47.75-17.63-5.7-7.1-9.01-15.3-9.87-24.31-1.66-17.41,4.39-31.74,18.24-42.5,7.79-6.05,16.8-9.28,26.68-9.89,1.82-.11,3.65.03,5.48.06,0,1.77,0,3.55,0,5.32-.25.41-.14.87-.14,1.31,0,9,0,17.99.01,26.99-1.42,0-2.84,0-4.26.01v-28.43c-1.66.7-3.05,1.56-4.33,2.63-3.97,3.32-6.84,7.47-9.05,12.1-1.61,3.37-2.92,6.86-3.67,10.53.01.28.06.56.04.83-.12,1.25.31,2.64-.85,3.65-.87.54-.59,1.49-.74,2.26-.37,1.93-.65,3.88-.62,5.92h19.16c.45.26.32.7.33,1.08.02.8.04,1.61,0,2.41-.04.73.22,1.01.97.98,1-.04,2.01,0,3.01,0l-.02,11.91c-1.43,0-2.86-.02-4.29-.03v-3.85c-6.29.03-12.45-.16-18.69.41.06,1.88.51,3.64.85,5.41-1.17.34-2.29.89-3.53.97-.49.03-.43.54-.7.76-.34-1.9-.72-3.79-1.01-5.7-.1-.68-.26-.82-1-.73-1.12.14-2.2.41-3.31.6-3.94.66-7.79,1.7-11.72,3.02,1.3,3.7,2.65,7.26,5.04,10.34.47,1.53,1.29,2.78,2.78,3.5.12.21.22.43.37.62,5.43,6.42,12.28,10.72,20.16,13.48.09.03.21-.04.49-.11-5.09-5.85-8.44-12.51-10.48-19.86.36-.19.79-.19,1.15-.32,1.01-.38,2.32,0,3.03-1.16.1.35.2.7.31,1.05,2.02,6.46,4.88,12.44,9.73,17.3,1.86,1.86,3.87,3.51,6.5,4.61,0-1.7,0-3.24,0-4.78.02-5.97.04-11.93.07-17.9.1-.36.1-.71,0-1.07v-1.89c1.42,0,2.84,0,4.27,0v25.76c2.36-1.12,4.27-2.37,5.95-4.01,2.69-2.63,4.89-5.6,6.67-8.9.23.87.79,1.36,1.58,1.82.61.35,1.51.16,1.87.95-1.45,2.93-3.33,5.59-5.39,8.14.54.33.93,0,1.32-.14,4.35-1.49,8.3-3.77,12.09-6.33,1.21,1.37,2.79,1.09,4.28.86.82-.13,1.51-.13,2.16.38ZM30.16,42.56c-.32.53-.61.97-.86,1.43-4.91,9-6.39,18.57-4.77,28.66.12.75.4.95,1.22.7,3.22-.97,6.47-1.83,9.78-2.44,2.05-.38,4.1-.73,6.02-1.07v-4.58c-.34-.02-.58-.04-.82-.04-3.25,0-6.5.01-9.76.01-1.4,0-2.34-.9-2.37-2.21-.03-1.41.78-2.22,2.27-2.24,1.38-.02,2.76-.02,4.15-.02,2.14,0,4.29,0,6.46,0,.19-3.05.54-5.93,1.11-8.77.26-1.28-.19-1.6-1.18-2.08-4.04-1.93-7.84-4.24-11.26-7.37Zm13.8,3.62c2.24-8.11,5.75-15.5,11.41-22.01-9.05,2.72-16.42,7.52-22.31,14.67,3.07,3.26,6.91,5.27,10.9,7.34Zm2.18,23.2c6.31-.62,12.63-.36,19-.45v-3.62h-19.41c0,1.37-.17,2.66.41,4.07Z"/>
      <path class="cls-2" d="m69.45,65.24c-1,0-2.01-.05-3.01,0-.74.03-1.01-.25-.97-.98.04-.8.02-1.61,0-2.41,0-.38.12-.82-.33-1.08,0-1.61,0-3.22,0-4.96-2.86-.13-5.67-.39-8.45-.86-3.18-.53-6.36-1.1-9.35-2.36,1.17-1.01.73-2.4.85-3.65.03-.27-.02-.56-.04-.83,2.48.96,5.03,1.7,7.65,2.16,3.11.55,6.21,1.15,9.4,1.01,1.42,0,2.84,0,4.26-.01.29.03.58.06.88.09.34.22.67.26.99-.04,4.75-.31,9.43-1.03,14.01-2.39,1.09-.32,1.29-.78,1-1.82-1.42-5.12-3.41-10-6.36-14.43-2.69-4.04-5.92-7.55-10.39-9.71,0-1.77,0-3.55,0-5.32,4.21.09,8.28.98,12.29,2.19,6.99,2.11,13.25,5.54,18.64,10.46,6.16,5.62,10.62,12.34,13.07,20.38,2.72,8.93,2.92,17.87.46,26.85-2.4,8.78-6.92,16.31-13.62,22.5-.15.13-.32.24-.48.35-.65-.51-1.34-.51-2.16-.38-1.49.23-3.08.5-4.28-.86,2.64-2.1,5.22-4.26,7.38-6.98-3.23-2.59-6.76-4.6-10.58-6.36-1.39,4.09-2.65,8.07-4.82,11.67-.36-.79-1.26-.6-1.87-.95-.79-.46-1.36-.95-1.58-1.82,1.5-3.44,3.11-6.85,3.92-10.58-.19-.1-.32-.2-.47-.24-3.73-1.04-7.53-1.69-11.38-1.96-1.55-.11-3.13-.46-4.7-.06-1.42,0-2.84,0-4.27,0-.26-.27-.6-.2-.92-.18-4.57.31-9.11.81-13.55,2.01-.73.2-1.66,0-2.13.86-.71,1.16-2.01.79-3.03,1.16-.36.13-.79.13-1.15.32-.89.02-1.62.49-2.38.85-2.91,1.37-5.53,3.21-8.17,5.02-1.49-.72-2.31-1.97-2.78-3.5,3.42-2.71,7.19-4.82,11.18-6.56.42-.18.99-.26.81-.97.27-.22.21-.73.7-.76,1.24-.08,2.36-.63,3.53-.97.17.5.33.72,1.02.54,5.51-1.43,11.14-2.15,16.82-2.52,1.43,0,2.86.02,4.29.03,5.91-.02,11.66,1.06,17.47,2.45,1.25-4.75,1.64-9.5,1.73-14.35h-19.18Zm41.19.05h-17.57c.02,4.91-.44,9.7-1.51,14.39-.33,1.45.19,1.86,1.34,2.37,3.57,1.58,6.97,3.48,10.01,5.97.21.18.53.34.93.22,4.44-6.94,6.9-14.5,6.79-22.95Zm-6.11-22.58c-1.68,1.32-3.24,2.65-4.91,3.85-2.18,1.56-4.51,2.89-6.97,3.96-.47.21-.85.34-.74,1.02.49,2.99,1.12,5.97.92,9,1.11.26,16.23.27,17.45.04.52-3.45-2.55-13.06-5.75-17.87Zm-2.82-3.85c-5.94-7.13-13.51-11.58-22.12-14.51,5.29,6.59,8.97,13.96,11.18,22.21,4.11-2.1,7.91-4.29,10.94-7.7Zm-32.19,21.85h18.97c0-2.69-.33-5.26-.88-7.89-5.98,1.81-12.01,2.72-18.15,3,0,1.49,0,2.83,0,4.18,0,.2.03.4.06.72Z"/>
      <path class="cls-2" d="m65,125.82c7.79-.03,13.27-.59,18.66-1.91,1.62-.4,2.73.25,2.88,1.56.13,1.13-.47,1.92-1.78,2.23-4.43,1.02-8.9,1.76-13.46,2.04-11.45.72-22.39-1.28-32.85-5.94-17.97-8-29.8-21.5-35.77-40.19C.39,76.44-.26,69.05.09,61.6c.27-5.72,1.34-11.34,3.18-16.79.29-.85.46-1.63.24-2.58-.41-1.78.73-3.52,2.33-3.86,1.68-.36,3.21.53,3.73,2.17.43,1.35-.17,2.94-1.46,3.5-.65.28-.89.69-1.06,1.32-1.23,4.26-2.07,8.58-2.67,12.98-.57,4.19-.6,8.37-.19,12.54,1.41,14.02,6.96,26.19,16.87,36.2,8.77,8.86,19.46,14.38,31.57,17.21,4.81,1.12,9.69,1.53,12.37,1.54Z"/>
      <path class="cls-3" d="m65.42,8.77c12.12.02,22.45,2.68,31.91,8.33,5.5,3.28,10.61,7.12,14.8,12.06.28.33.72.52,1.06.8,1.1.91,1.43,2.18.92,3.38-.55,1.27-1.62,1.85-3.05,1.64-1.44-.21-2.54-1.13-2.62-2.45-.05-.89-.39-1.52-.98-2.11-7.45-7.54-16.19-12.86-26.49-15.54-4.32-1.13-8.7-1.86-13.17-1.94-7.9-.15-15.46,1.4-22.7,4.54-3.64,1.58-7.12,3.49-10.26,5.86-2.68,2.02-5.23,4.25-7.52,6.74-.34.37-.51.76-.56,1.28-.17,1.7-1.21,2.74-2.78,2.88-1.73.15-2.95-.65-3.42-2.26-.48-1.65.07-3.33,1.64-3.87,1.56-.54,2.54-1.65,3.62-2.7,4.54-4.45,9.65-8.06,15.41-10.75,5.41-2.54,11.03-4.41,16.96-5.23,2.76-.38,5.53-.74,7.24-.63Z"/>
      <path class="cls-2" d="m110.1,15.53c-.07.71-.39,1.3-1.01,1.7-.74.48-1.48.32-2.17-.14-1.41-.95-2.79-1.97-4.23-2.88-7.2-4.54-15.05-7.43-23.36-9.15-8.98-1.86-17.92-1.53-26.84.38-8.82,1.89-16.89,5.47-24.22,10.74-.43.31-.87.59-1.41.7-.88.17-1.63,0-2.11-.81-.49-.83-.41-1.65.25-2.35,1.08-1.13,2.46-1.86,3.76-2.69C37.01,5.74,45.99,2.38,55.66.86c4.78-.75,9.61-1,14.45-.78,13.69.63,26.12,5.04,37.49,12.59.61.4,1.16.89,1.71,1.37.44.38.73.87.79,1.49Z"/>
      <path class="cls-3" d="m39.84,114.68c-6.27-3.33-11.72-7.69-16.34-13.08-6.32-7.38-10.52-15.84-12.4-25.35-1.86-9.36-1.44-18.7,1.27-27.88.2-.68.27-1.29.06-2-.56-1.94.57-3.92,2.42-4.39,1.78-.45,3.6.67,4.11,2.53.36,1.3-.13,2.79-1.41,3.44-.87.44-1.18,1.21-1.32,1.88-1.04,4.82-1.97,9.67-1.98,14.63-.02,11.94,3.46,22.72,10.77,32.22,4.02,5.23,8.86,9.55,14.5,12.98.68.41,1.36.83,2.04,1.25-1.29.93-1.66,2.28-1.71,3.77Z"/>
      <path class="cls-3" d="m120.4,63.81c-.11-3.86-.46-7.2-1.08-10.52-.14-.72-.42-1.25-.97-1.74-1.32-1.2-1.49-2.99-.47-4.38.98-1.33,2.85-1.68,4.36-.81,1.43.83,2.04,2.57,1.3,4.11-.34.7-.26,1.34-.13,1.99,2.73,14.15.91,27.6-6.05,40.29-1.09,2-2.29,3.93-3.6,5.79-.32.45-.48.82-.31,1.44.61,2.14-.97,4.12-3.24,4.02-.9-.04-1.5.23-2.13.82-1.43,1.36-2.83,2.76-4.43,3.93-.39.29-.53.65-.65,1.1-.43,1.67-1.69,2.44-3.52,2.25-1.56-.17-2.75-1.4-2.89-2.98-.12-1.42,1-3.21,2.47-3.32,1.81-.14,2.91-1.24,4.1-2.3.91-.81,1.8-1.65,2.68-2.49.62-.59,1.16-1.2,1.43-2.07.22-.71.71-1.36,1.43-1.57.92-.27,1.36-.96,1.84-1.66,4.89-7.09,8.06-14.87,9.31-23.39.44-2.98.68-5.98.54-8.51Z"/>
      <path class="cls-2" d="m133.51,65.98c.15,6.71-1.5,15.54-5.07,24-.27.63-.35,1.16-.19,1.83.41,1.74-.54,3.33-2.18,3.82-1.65.49-3.35-.37-3.94-2-.59-1.63.13-3.27,1.8-4.01.48-.21.8-.45.99-.96,2.01-5.57,3.7-11.22,4.26-17.16.65-6.75.42-13.46-1.03-20.1-2.03-9.3-5.81-17.79-11.62-25.35-.32-.42-.65-.84-.93-1.28-.63-.99-.51-1.96.29-2.62.89-.74,2.04-.72,2.84.19.78.88,1.45,1.86,2.13,2.82,3.91,5.44,6.71,11.4,8.92,17.73,2.34,6.72,3.45,13.57,3.74,23.1Z"/>
      <path class="cls-2" d="m39.84,114.68c.05-1.49.41-2.84,1.71-3.77,4.45,2.45,9.11,4.34,14.09,5.41,6.29,1.35,12.63,1.48,19.01.75,2.59-.3,5.12-.82,7.64-1.46,1.23-.31,2.16.18,2.46,1.18.37,1.24-.13,2.22-1.49,2.6-3.84,1.08-7.77,1.66-11.75,1.94-6.85.48-13.62-.03-20.24-1.95-3.98-1.15-7.82-2.66-11.43-4.71Z"/>
      <path class="cls-2" d="m109.99,114.02c.03.64-.37,1.15-.91,1.54-2.49,1.81-5.03,3.54-7.8,4.93-1.71.86-3.38,1.84-5.1,2.69-.64.32-1.28.53-1.99.34-.86-.23-1.43-.77-1.62-1.64-.19-.93.23-1.58,1.05-1.98,1.49-.74,2.99-1.45,4.48-2.18,3-1.47,5.75-3.34,8.49-5.24,1.22-.85,2.03-.8,2.84.03.39.4.58.87.56,1.51Z"/>
      <path class="cls-3" d="m16.71,26.95c-1.79-.02-3.25-1.49-3.23-3.26.03-1.83,1.53-3.24,3.43-3.21,1.81.03,3.23,1.47,3.21,3.26-.02,1.84-1.49,3.22-3.41,3.2Z"/>
      <path class="cls-4" d="m65.18,84.78c-.14-.36-.14-.71,0-1.07.1.36.1.71,0,1.07Z"/>
      <path class="cls-1" d="m70.35,51.35c.33-.13.66-.1.99-.04-.32.29-.65.26-.99.04Z"/>
      <path class="cls-3" d="m75.66,34.92c1.68,0,2.85,1.18,2.81,2.81-.03,1.52-1.18,2.59-2.76,2.58-1.6-.02-2.78-1.19-2.75-2.74.03-1.56,1.14-2.65,2.7-2.64Z"/>
      <path class="cls-2" d="m84.51,71.85c.03,1.23-.95,2.26-2.18,2.28-1.23.02-2.24-.94-2.29-2.18-.04-1.26.9-2.32,2.1-2.36,1.24-.05,2.34.99,2.37,2.26Z"/>
      <path class="cls-2" d="m102.43,75.6c-1.7.04-3.18-1.42-3.2-3.15-.02-1.69,1.35-3.09,3.06-3.13,1.75-.04,3.3,1.34,3.36,3,.07,1.74-1.41,3.24-3.23,3.28Z"/>
    </g>
  </g>
</svg>